<?xml version="1.0" encoding="utf-8"?><svg xmlns="http://www.w3.org/2000/svg" xmlns:xlink="http://www.w3.org/1999/xlink"><symbol viewBox="0 0 24 24" id="fb" xmlns="http://www.w3.org/2000/svg"><path d="M22.676 0H1.324C.593 0 0 .593 0 1.324v21.352C0 23.408.593 24 1.324 24h11.494v-9.294H9.689v-3.621h3.129V8.41c0-3.099 1.894-4.785 4.659-4.785 1.325 0 2.464.097 2.796.141v3.24h-1.921c-1.5 0-1.792.721-1.792 1.771v2.311h3.584l-.465 3.63H16.56V24h6.115c.733 0 1.325-.592 1.325-1.324V1.324C24 .593 23.408 0 22.676 0"/></symbol><symbol viewBox="0 0 24 24" id="inst" xmlns="http://www.w3.org/2000/svg"><path d="M12 0C8.74 0 8.333.015 7.053.072 5.775.132 4.905.333 4.14.63c-.789.306-1.459.717-2.126 1.384S.935 3.35.63 4.14C.333 4.905.131 5.775.072 7.053.012 8.333 0 8.74 0 12s.015 3.667.072 4.947c.06 1.277.261 2.148.558 2.913a5.885 5.885 0 0 0 1.384 2.126A5.868 5.868 0 0 0 4.14 23.37c.766.296 1.636.499 2.913.558C8.333 23.988 8.74 24 12 24s3.667-.015 4.947-.072c1.277-.06 2.148-.262 2.913-.558a5.898 5.898 0 0 0 2.126-1.384 5.86 5.86 0 0 0 1.384-2.126c.296-.765.499-1.636.558-2.913.06-1.28.072-1.687.072-4.947s-.015-3.667-.072-4.947c-.06-1.277-.262-2.149-.558-2.913a5.89 5.89 0 0 0-1.384-2.126A5.847 5.847 0 0 0 19.86.63c-.765-.297-1.636-.499-2.913-.558C15.667.012 15.26 0 12 0zm0 2.16c3.203 0 3.585.016 4.85.071 1.17.055 1.805.249 2.227.415.562.217.96.477 1.382.896.419.42.679.819.896 1.381.164.422.36 1.057.413 2.227.057 1.266.07 1.646.07 4.85s-.015 3.585-.074 4.85c-.061 1.17-.256 1.805-.421 2.227a3.81 3.81 0 0 1-.899 1.382 3.744 3.744 0 0 1-1.38.896c-.42.164-1.065.36-2.235.413-1.274.057-1.649.07-4.859.07-3.211 0-3.586-.015-4.859-.074-1.171-.061-1.816-.256-2.236-.421a3.716 3.716 0 0 1-1.379-.899 3.644 3.644 0 0 1-.9-1.38c-.165-.42-.359-1.065-.42-2.235-.045-1.26-.061-1.649-.061-4.844 0-3.196.016-3.586.061-4.861.061-1.17.255-1.814.42-2.234.21-.57.479-.96.9-1.381.419-.419.81-.689 1.379-.898.42-.166 1.051-.361 2.221-.421 1.275-.045 1.65-.06 4.859-.06l.045.03zm0 3.678a6.162 6.162 0 1 0 0 12.324 6.162 6.162 0 1 0 0-12.324zM12 16c-2.21 0-4-1.79-4-4s1.79-4 4-4 4 1.79 4 4-1.79 4-4 4zm7.846-10.405a1.441 1.441 0 0 1-2.88 0 1.44 1.44 0 0 1 2.88 0z"/><path d="M7.966 23.95c-1.816-.059-2.71-.192-3.675-.546a5.96 5.96 0 0 1-2.364-1.545C.92 20.815.35 19.498.154 17.763c-.099-.875-.126-2.118-.127-5.777 0-4.434.04-5.52.247-6.548.164-.816.461-1.615.837-2.248.313-.526.94-1.233 1.476-1.663C3.33.932 4.407.466 5.515.261c1-.185 1.641-.21 5.74-.23 6.135-.03 7.18.048 8.677.65a5.54 5.54 0 0 1 1.847 1.168c1.315 1.223 1.958 2.73 2.12 4.968.097 1.353.098 9.03.001 10.356-.098 1.344-.333 2.295-.8 3.237a5.52 5.52 0 0 1-1.014 1.433 5.94 5.94 0 0 1-2.338 1.549c-.997.372-1.846.494-3.9.56-1.193.039-6.675.037-7.882-.002zm8.865-2.164c1.443-.096 2.298-.334 3.078-.855.315-.21.89-.814 1.1-1.154.428-.691.66-1.522.753-2.688.129-1.631.128-8.721-.001-10.27-.097-1.161-.348-2.016-.781-2.662-.699-1.042-1.69-1.623-3.15-1.848-.635-.097-1.181-.115-4.949-.156-5.525-.061-6.663-.01-7.745.349-.676.224-1.105.475-1.567.919-.512.492-.792.921-1.023 1.568-.278.78-.362 1.404-.414 3.08-.046 1.495-.02 8.13.035 8.884.138 1.882.59 2.922 1.655 3.804.57.473 1.408.8 2.406.938.336.047 1.275.107 2.111.135.806.026 7.997-.01 8.492-.044z"/><path d="M7.932 23.95c-2.513-.083-3.732-.387-5.037-1.256-.456-.304-1.208-1.042-1.548-1.521-.461-.65-.866-1.619-1.055-2.526-.224-1.079-.265-2.085-.265-6.66 0-5.022.054-6.014.4-7.187.38-1.289.915-2.149 1.895-3.044C3.346.821 4.768.273 6.559.123 7.432.05 9.025.02 12.051.021c4.75 0 5.818.056 7.023.371 1.272.332 2.271.937 3.151 1.906.987 1.087 1.525 2.533 1.674 4.502.098 1.29.098 9.108 0 10.407-.098 1.31-.34 2.282-.798 3.203-.302.607-.592 1-1.151 1.56-.68.682-1.311 1.089-2.202 1.422-.994.371-1.855.495-3.884.56-1.19.039-6.75.037-7.932-.002zm7.305-2.133c2.2-.04 2.812-.104 3.609-.37a4.015 4.015 0 0 0 2.606-2.651c.313-.982.365-1.701.399-5.488.022-2.485-.022-5.643-.09-6.474-.112-1.388-.443-2.325-1.088-3.078-.735-.86-1.782-1.342-3.25-1.496-.912-.097-7.753-.173-9.592-.107-1.492.053-2.035.128-2.78.383-.69.236-1.162.538-1.65 1.055-.766.813-1.115 1.793-1.234 3.463-.054.758-.08 7.066-.035 8.661.05 1.794.127 2.417.4 3.199.214.616.445.995.883 1.451.352.365.593.557.93.739.9.485 1.71.644 3.621.71 1.104.038 5.26.04 7.271.003z"/><path d="M11.437 18.12c-2.675-.24-4.898-2.233-5.457-4.894-.119-.563-.149-1.491-.067-2.053a6.185 6.185 0 0 1 3.174-4.585c1.032-.571 2.41-.835 3.61-.69a6.172 6.172 0 0 1 4.864 3.495 6.37 6.37 0 0 1 .543 1.899c.063.478.022 1.43-.084 1.934a6.15 6.15 0 0 1-5.513 4.895 4.878 4.878 0 0 1-1.07-.002zm1.055-2.137a3.97 3.97 0 0 0 2.374-1.187c.169-.175.373-.415.453-.534.215-.317.461-.856.567-1.242.086-.314.093-.387.094-1 .002-.575-.008-.7-.073-.958-.404-1.593-1.669-2.765-3.264-3.023a4.014 4.014 0 0 0-4.576 3.168c-.105.507-.083 1.317.049 1.813.105.398.42 1.06.645 1.356.902 1.186 2.288 1.783 3.73 1.607z"/></symbol><symbol viewBox="0 0 24 24" id="tw" xmlns="http://www.w3.org/2000/svg"><path d="M23.954 4.569a10 10 0 0 1-2.825.775 4.958 4.958 0 0 0 2.163-2.723c-.951.555-2.005.959-3.127 1.184a4.92 4.92 0 0 0-8.384 4.482C7.691 8.094 4.066 6.13 1.64 3.161a4.822 4.822 0 0 0-.666 2.475c0 1.71.87 3.213 2.188 4.096a4.904 4.904 0 0 1-2.228-.616v.061a4.923 4.923 0 0 0 3.946 4.827 4.996 4.996 0 0 1-2.212.085 4.937 4.937 0 0 0 4.604 3.417 9.868 9.868 0 0 1-6.102 2.105c-.39 0-.779-.023-1.17-.067a13.995 13.995 0 0 0 7.557 2.209c9.054 0 13.999-7.496 13.999-13.986 0-.209 0-.42-.015-.63a9.936 9.936 0 0 0 2.46-2.548l-.047-.02z"/></symbol><symbol viewBox="0 0 24 24" id="vk" xmlns="http://www.w3.org/2000/svg"><path d="M11.701 18.771h1.437s.433-.047.654-.284c.21-.221.21-.63.21-.63s-.031-1.927.869-2.21c.887-.281 2.012 1.86 3.211 2.683.916.629 1.605.494 1.605.494l3.211-.044s1.682-.105.887-1.426c-.061-.105-.451-.975-2.371-2.76-2.012-1.861-1.742-1.561.676-4.787 1.469-1.965 2.07-3.166 1.875-3.676-.166-.48-1.26-.361-1.26-.361l-3.602.031s-.27-.031-.465.09c-.195.119-.314.391-.314.391s-.572 1.529-1.336 2.82c-1.623 2.729-2.268 2.879-2.523 2.699-.604-.391-.449-1.58-.449-2.432 0-2.641.404-3.75-.781-4.035-.39-.091-.681-.15-1.685-.166-1.29-.014-2.378.01-2.995.311-.405.203-.72.652-.539.675.24.03.779.146 1.064.537.375.506.359 1.636.359 1.636s.211 3.116-.494 3.503c-.495.262-1.155-.28-2.595-2.756-.735-1.26-1.291-2.67-1.291-2.67s-.105-.256-.299-.406c-.227-.165-.557-.225-.557-.225l-3.435.03s-.51.016-.689.24c-.166.195-.016.615-.016.615s2.686 6.287 5.732 9.453c2.79 2.902 5.956 2.715 5.956 2.715l-.05-.055z"/></symbol></svg>