<?xml version="1.0" encoding="UTF-8" standalone="no"?>
<svg
   xmlns:dc="http://purl.org/dc/elements/1.1/"
   xmlns:cc="http://creativecommons.org/ns#"
   xmlns:rdf="http://www.w3.org/1999/02/22-rdf-syntax-ns#"
   xmlns:svg="http://www.w3.org/2000/svg"
   xmlns="http://www.w3.org/2000/svg"
   xmlns:sodipodi="http://sodipodi.sourceforge.net/DTD/sodipodi-0.dtd"
   xmlns:inkscape="http://www.inkscape.org/namespaces/inkscape"
   aria-labelledby="simpleicons-instagram-icon"
   role="img"
   viewBox="0 0 24 24"
   version="1.1"
   id="svg24"
   sodipodi:docname="instagram.svg"
   inkscape:version="0.92.2 (5c3e80d, 2017-08-06)">
  <metadata
     id="metadata30">
    <rdf:RDF>
      <cc:Work
         rdf:about="">
        <dc:format>image/svg+xml</dc:format>
        <dc:type
           rdf:resource="http://purl.org/dc/dcmitype/StillImage" />
      </cc:Work>
    </rdf:RDF>
  </metadata>
  <defs
     id="defs28" />
  <sodipodi:namedview
     pagecolor="#ffffff"
     bordercolor="#666666"
     borderopacity="1"
     objecttolerance="10"
     gridtolerance="10"
     guidetolerance="10"
     inkscape:pageopacity="0"
     inkscape:pageshadow="2"
     inkscape:window-width="1600"
     inkscape:window-height="877"
     id="namedview26"
     showgrid="false"
     inkscape:zoom="29.5"
     inkscape:cx="8.5416286"
     inkscape:cy="12"
     inkscape:window-x="-8"
     inkscape:window-y="-8"
     inkscape:window-maximized="1"
     inkscape:current-layer="svg24" />
  <title
     id="simpleicons-instagram-icon">Instagram icon</title>
  <path
     d="M12 0C8.74 0 8.333.015 7.053.072 5.775.132 4.905.333 4.14.63c-.789.306-1.459.717-2.126 1.384S.935 3.35.63 4.14C.333 4.905.131 5.775.072 7.053.012 8.333 0 8.74 0 12s.015 3.667.072 4.947c.06 1.277.261 2.148.558 2.913.306.788.717 1.459 1.384 2.126.667.666 1.336 1.079 2.126 1.384.766.296 1.636.499 2.913.558C8.333 23.988 8.74 24 12 24s3.667-.015 4.947-.072c1.277-.06 2.148-.262 2.913-.558.788-.306 1.459-.718 2.126-1.384.666-.667 1.079-1.335 1.384-2.126.296-.765.499-1.636.558-2.913.06-1.28.072-1.687.072-4.947s-.015-3.667-.072-4.947c-.06-1.277-.262-2.149-.558-2.913-.306-.789-.718-1.459-1.384-2.126C21.319 1.347 20.651.935 19.86.63c-.765-.297-1.636-.499-2.913-.558C15.667.012 15.26 0 12 0zm0 2.16c3.203 0 3.585.016 4.85.071 1.17.055 1.805.249 2.227.415.562.217.96.477 1.382.896.419.42.679.819.896 1.381.164.422.36 1.057.413 2.227.057 1.266.07 1.646.07 4.85s-.015 3.585-.074 4.85c-.061 1.17-.256 1.805-.421 2.227-.224.562-.479.96-.899 1.382-.419.419-.824.679-1.38.896-.42.164-1.065.36-2.235.413-1.274.057-1.649.07-4.859.07-3.211 0-3.586-.015-4.859-.074-1.171-.061-1.816-.256-2.236-.421-.569-.224-.96-.479-1.379-.899-.421-.419-.69-.824-.9-1.38-.165-.42-.359-1.065-.42-2.235-.045-1.26-.061-1.649-.061-4.844 0-3.196.016-3.586.061-4.861.061-1.17.255-1.814.42-2.234.21-.57.479-.96.9-1.381.419-.419.81-.689 1.379-.898.42-.166 1.051-.361 2.221-.421 1.275-.045 1.65-.06 4.859-.06l.045.03zm0 3.678c-3.405 0-6.162 2.76-6.162 6.162 0 3.405 2.76 6.162 6.162 6.162 3.405 0 6.162-2.76 6.162-6.162 0-3.405-2.76-6.162-6.162-6.162zM12 16c-2.21 0-4-1.79-4-4s1.79-4 4-4 4 1.79 4 4-1.79 4-4 4zm7.846-10.405c0 .795-.646 1.44-1.44 1.44-.795 0-1.44-.646-1.44-1.44 0-.794.646-1.439 1.44-1.439.793-.001 1.44.645 1.44 1.439z"
     id="path22"
     style="fill:#cccdd9;fill-opacity:1" />
  <path
     style="stroke-width:0.03389831"
     d="M 7.9661017,23.949954 C 6.1503336,23.890993 5.2563586,23.758148 4.2909224,23.403823 3.3473702,23.057529 2.6292379,22.588338 1.9268972,21.859289 0.92103356,20.815176 0.35088492,19.497663 0.15432441,17.763187 0.05509429,16.887567 0.0277938,15.644949 0.02740852,11.986441 0.02694153,7.552039 0.06780261,6.4667258 0.27393319,5.4384858 0.43764725,4.6218319 0.73500729,3.8233522 1.1113498,3.1898305 1.4238737,2.6637388 2.0508676,1.9572549 2.5870677,1.5270216 3.3288844,0.93180675 4.4071061,0.46563353 5.5150875,0.26108105 6.5159149,0.07631107 7.1561037,0.05061916 11.254237,0.03075878 c 6.135841,-0.02973551 7.180989,0.04856744 8.677966,0.65015668 0.743496,0.2987882 1.26798,0.63062504 1.846485,1.16825694 1.315594,1.2226416 1.958433,2.729131 2.120025,4.9682598 0.09764,1.3530247 0.09875,9.0301008 0.0015,10.3554488 -0.09867,1.344562 -0.333479,2.294773 -0.799979,3.237288 -0.266951,0.53935 -0.570092,0.967792 -1.013825,1.432885 -0.696112,0.729621 -1.408377,1.201341 -2.338778,1.548929 -0.996482,0.372275 -1.845663,0.494311 -3.900165,0.560493 -1.192411,0.03841 -6.6747763,0.03666 -7.8813556,-0.0025 z m 8.8644063,-2.163488 c 1.443935,-0.09689 2.298224,-0.334364 3.078118,-0.855634 0.315139,-0.210635 0.890635,-0.813745 1.100635,-1.153447 0.4276,-0.6917 0.660043,-1.522233 0.75247,-2.68863 0.129255,-1.631158 0.128586,-8.7209025 -9.7e-4,-10.2692028 C 21.663548,5.6577708 21.412726,4.8028898 20.979508,4.1567976 20.281192,3.1153405 19.290488,2.5341457 17.830508,2.309441 17.195133,2.2116506 16.648585,2.1943463 12.881356,2.1527448 7.3555671,2.0917237 6.2176698,2.1430102 5.1355932,2.5018563 4.4595814,2.7260402 4.0310515,2.9774705 3.5691037,3.420959 3.057036,3.9125644 2.7766415,4.3423793 2.5459662,4.9893203 2.267837,5.7693481 2.1839625,6.3934237 2.1321892,8.0680651 c -0.046246,1.4958535 -0.019911,8.1307439 0.035264,8.8844729 0.137823,1.882762 0.5899293,2.922394 1.6544568,3.80447 0.5702895,0.472547 1.4079176,0.799295 2.4058122,0.938477 0.3359305,0.04685 1.2751637,0.106505 2.1112607,0.134086 0.8060261,0.02659 7.9969081,-0.0099 8.4915251,-0.04311 z"
     id="path3722"
     inkscape:connector-curvature="0" />
  <path
     style="stroke-width:0.03389831;fill:#cccdd9;fill-opacity:1"
     d="M 7.9322034,23.949529 C 5.4193319,23.866595 4.2004342,23.562844 2.8952407,22.694313 2.4385436,22.390407 1.6869885,21.651888 1.3469529,21.172881 0.88586641,20.52335 0.48126027,19.554414 0.29239264,18.647458 0.06762279,17.568096 0.02749336,16.561555 0.02682699,11.986441 0.02609557,6.964801 0.08133916,5.9729529 0.42709468,4.8 0.80706071,3.5109902 1.3424639,2.6510513 2.3220339,1.7564399 3.3459702,0.82131007 4.7676807,0.27334331 6.559322,0.12327117 7.4315207,0.05021374 9.0248969,0.02041976 12.050847,0.02058706 c 4.749844,2.6261e-4 5.818358,0.05678601 7.023196,0.37152057 1.272005,0.33228023 2.271391,0.93674217 3.15134,1.90603597 0.986836,1.0870333 1.524608,2.5333279 1.673915,4.5018564 0.0978,1.2894576 0.09811,9.107732 4.06e-4,10.40678 -0.09857,1.310571 -0.340914,2.282294 -0.798927,3.203389 -0.301914,0.60717 -0.591624,0.999878 -1.151268,1.560565 -0.679781,0.681048 -1.310628,1.088237 -2.201887,1.421236 -0.993508,0.371202 -1.854796,0.495519 -3.883215,0.560495 -1.1908,0.03815 -6.7498219,0.03609 -7.9322036,-0.0029 z m 7.3050846,-2.132958 c 2.198838,-0.04043 2.81221,-0.103352 3.608628,-0.370176 1.272142,-0.426207 2.198398,-1.368075 2.606541,-2.650476 0.312517,-0.981942 0.36469,-1.700965 0.398172,-5.487444 0.02198,-2.485281 -0.02137,-5.6435608 -0.08886,-6.4745767 C 21.649018,5.4455342 21.317717,4.5085953 20.673253,3.755501 19.937948,2.8962553 18.890673,2.4141289 17.423729,2.2595415 16.511226,2.1633815 9.6700315,2.0873008 7.8305085,2.1528557 6.3394386,2.2059927 5.7956637,2.280903 5.0508475,2.5357812 4.3611888,2.7717842 3.8893736,3.0737226 3.4014227,3.5913315 2.6351879,4.4041386 2.2860278,5.3836851 2.1670669,7.0542373 2.1131167,7.8118529 2.0873,14.119621 2.1316186,15.715254 c 0.049834,1.794202 0.1276691,2.417163 0.3996315,3.198491 0.214591,0.616504 0.4454594,0.995403 0.8842391,1.451206 0.3518942,0.365547 0.5928844,0.557012 0.9298881,0.738789 0.9004488,0.485696 1.7091891,0.644348 3.6207244,0.710286 1.1040898,0.03809 5.2592813,0.03954 7.2711863,0.0025 z"
     id="path3724"
     inkscape:connector-curvature="0" />
  <path
     style="stroke-width:0.03389831;fill:#cccdd9;fill-opacity:1"
     d="M 11.43734,18.119061 C 8.7623872,17.880136 6.5388406,15.886586 5.9798601,13.226085 5.8614679,12.66259 5.8310259,11.734638 5.9125035,11.172881 6.1979226,9.2050298 7.3418697,7.5525932 9.0865243,6.5879943 10.119407,6.0169257 11.496995,5.7533003 12.69655,5.8971535 c 2.127043,0.2550794 3.957912,1.5708143 4.864842,3.4960668 0.271417,0.5761699 0.451367,1.2054767 0.542818,1.8983047 0.06315,0.478378 0.02175,1.429646 -0.08419,1.93456 -0.564159,2.688894 -2.775962,4.652649 -5.513203,4.894912 -0.434204,0.03843 -0.621344,0.03809 -1.069477,-0.0019 z m 1.054185,-2.1363 c 0.90255,-0.110605 1.738574,-0.5286 2.374464,-1.187184 0.168666,-0.174686 0.372595,-0.414778 0.453174,-0.533538 0.215316,-0.317339 0.46096,-0.855556 0.566714,-1.2417 0.086,-0.313997 0.09297,-0.387707 0.0946,-1 0.0015,-0.575359 -0.008,-0.69957 -0.07368,-0.958526 C 15.502898,9.4689946 14.238097,8.2974481 12.643137,8.0387877 10.5144,7.6935628 8.5020187,9.0865772 8.0665808,11.20678 c -0.1041515,0.507127 -0.082204,1.317407 0.049123,1.813559 0.1052944,0.397802 0.4204795,1.05967 0.6457019,1.355932 0.9017079,1.186126 2.2880753,1.783208 3.7301193,1.60649 z"
     id="path3726"
     inkscape:connector-curvature="0" />
</svg>
